<?xml version="1.0" encoding="UTF-8" standalone="no"?>
<!DOCTYPE svg PUBLIC "-//W3C//DTD SVG 1.1//EN"
 "http://www.w3.org/Graphics/SVG/1.1/DTD/svg11.dtd">
<!-- Generated by graphviz version 12.2.1 (20241206.2353)
 -->
<!-- Pages: 1 -->
<svg width="1017pt" height="788pt"
 viewBox="0.00 0.00 1017.39 787.71" xmlns="http://www.w3.org/2000/svg" xmlns:xlink="http://www.w3.org/1999/xlink">
<g id="graph0" class="graph" transform="scale(1 1) rotate(0) translate(4 783.71)">
<polygon fill="white" stroke="none" points="-4,4 -4,-783.71 1013.39,-783.71 1013.39,4 -4,4"/>
<!-- tJf -->
<g id="node1" class="node">
<title>tJf</title>
<polygon fill="#b2dfee" stroke="#b2dfee" points="502.32,-703.76 415.07,-703.76 415.07,-667.76 502.32,-667.76 502.32,-703.76"/>
<text text-anchor="middle" x="458.7" y="-682.58" font-family="Times,serif" font-size="14.00">推五星見復</text>
</g>
<!-- 定見復數 -->
<g id="node11" class="node">
<title>定見復數</title>
<ellipse fill="none" stroke="black" cx="403.7" cy="-611.78" rx="51.62" ry="19.98"/>
<text text-anchor="middle" x="403.7" y="-608.61" font-family="Times,serif" font-size="14.00">定見復數</text>
</g>
<!-- tJf&#45;&gt;定見復數 -->
<g id="edge2" class="edge">
<title>tJf&#45;&gt;定見復數</title>
<path fill="none" stroke="black" d="M445.38,-667.33C439.2,-659.24 431.7,-649.43 424.78,-640.37"/>
<polygon fill="black" stroke="black" points="427.62,-638.33 418.77,-632.51 422.06,-642.58 427.62,-638.33"/>
</g>
<!-- 見復餘 -->
<g id="node12" class="node">
<title>見復餘</title>
<ellipse fill="none" stroke="black" cx="514.7" cy="-611.78" rx="41.54" ry="19.98"/>
<text text-anchor="middle" x="514.7" y="-608.61" font-family="Times,serif" font-size="14.00">見復餘</text>
</g>
<!-- tJf&#45;&gt;見復餘 -->
<g id="edge3" class="edge">
<title>tJf&#45;&gt;見復餘</title>
<path fill="none" stroke="black" d="M472.25,-667.33C478.66,-659.1 486.46,-649.07 493.62,-639.87"/>
<polygon fill="black" stroke="black" points="496.17,-642.29 499.55,-632.24 490.65,-637.99 496.17,-642.29"/>
</g>
<!-- tZc -->
<g id="node2" class="node">
<title>tZc</title>
<polygon fill="#b2dfee" stroke="#b2dfee" points="545.45,-555.81 443.95,-555.81 443.95,-519.81 545.45,-519.81 545.45,-555.81"/>
<text text-anchor="middle" x="494.7" y="-534.63" font-family="Times,serif" font-size="14.00">推星所見中次</text>
</g>
<!-- 中元餘 -->
<g id="node14" class="node">
<title>中元餘</title>
<ellipse fill="none" stroke="black" cx="736.7" cy="-463.83" rx="41.54" ry="19.98"/>
<text text-anchor="middle" x="736.7" y="-460.66" font-family="Times,serif" font-size="14.00">中元餘</text>
</g>
<!-- tZc&#45;&gt;中元餘 -->
<g id="edge7" class="edge">
<title>tZc&#45;&gt;中元餘</title>
<path fill="none" stroke="black" d="M545.72,-521.63C588.78,-508.82 649.86,-490.66 691.26,-478.34"/>
<polygon fill="black" stroke="black" points="692.08,-481.75 700.67,-475.55 690.09,-475.04 692.08,-481.75"/>
</g>
<!-- 星見中次 -->
<g id="node15" class="node">
<title>星見中次</title>
<ellipse fill="none" stroke="black" cx="393.7" cy="-463.83" rx="51.62" ry="19.98"/>
<text text-anchor="middle" x="393.7" y="-460.66" font-family="Times,serif" font-size="14.00">星見中次</text>
</g>
<!-- tZc&#45;&gt;星見中次 -->
<g id="edge8" class="edge">
<title>tZc&#45;&gt;星見中次</title>
<path fill="none" stroke="black" d="M470.25,-519.38C457.12,-510.03 440.77,-498.38 426.55,-488.24"/>
<polygon fill="black" stroke="black" points="428.98,-485.68 418.8,-482.72 424.92,-491.38 428.98,-485.68"/>
</g>
<!-- 積中 -->
<g id="node16" class="node">
<title>積中</title>
<ellipse fill="none" stroke="black" cx="494.7" cy="-463.83" rx="31.47" ry="19.98"/>
<text text-anchor="middle" x="494.7" y="-460.66" font-family="Times,serif" font-size="14.00">積中</text>
</g>
<!-- tZc&#45;&gt;積中 -->
<g id="edge9" class="edge">
<title>tZc&#45;&gt;積中</title>
<path fill="none" stroke="black" d="M494.7,-519.38C494.7,-512.23 494.7,-503.72 494.7,-495.58"/>
<polygon fill="black" stroke="black" points="498.2,-495.63 494.7,-485.63 491.2,-495.63 498.2,-495.63"/>
</g>
<!-- 中餘 -->
<g id="node17" class="node">
<title>中餘</title>
<ellipse fill="none" stroke="black" cx="575.7" cy="-463.83" rx="31.47" ry="19.98"/>
<text text-anchor="middle" x="575.7" y="-460.66" font-family="Times,serif" font-size="14.00">中餘</text>
</g>
<!-- tZc&#45;&gt;中餘 -->
<g id="edge10" class="edge">
<title>tZc&#45;&gt;中餘</title>
<path fill="none" stroke="black" d="M514.3,-519.38C524.9,-509.97 538.12,-498.22 549.58,-488.04"/>
<polygon fill="black" stroke="black" points="551.64,-490.88 556.79,-481.63 546.99,-485.65 551.64,-490.88"/>
</g>
<!-- tXjy -->
<g id="node3" class="node">
<title>tXjy</title>
<polygon fill="#b2dfee" stroke="#b2dfee" points="395.2,-407.85 322.2,-407.85 322.2,-371.85 395.2,-371.85 395.2,-407.85"/>
<text text-anchor="middle" x="358.7" y="-386.68" font-family="Times,serif" font-size="14.00">推星見月</text>
</g>
<!-- 星所見月 -->
<g id="node13" class="node">
<title>星所見月</title>
<ellipse fill="none" stroke="black" cx="415.7" cy="-315.88" rx="51.62" ry="19.98"/>
<text text-anchor="middle" x="415.7" y="-312.7" font-family="Times,serif" font-size="14.00">星所見月</text>
</g>
<!-- tXjy&#45;&gt;星所見月 -->
<g id="edge5" class="edge">
<title>tXjy&#45;&gt;星所見月</title>
<path fill="none" stroke="black" d="M372.49,-371.43C378.97,-363.26 386.84,-353.32 394.07,-344.18"/>
<polygon fill="black" stroke="black" points="396.62,-346.6 400.09,-336.59 391.14,-342.25 396.62,-346.6"/>
</g>
<!-- 月元餘 -->
<g id="node18" class="node">
<title>月元餘</title>
<ellipse fill="none" stroke="black" cx="102.7" cy="-315.88" rx="41.54" ry="19.98"/>
<text text-anchor="middle" x="102.7" y="-312.7" font-family="Times,serif" font-size="14.00">月元餘</text>
</g>
<!-- tXjy&#45;&gt;月元餘 -->
<g id="edge13" class="edge">
<title>tXjy&#45;&gt;月元餘</title>
<path fill="none" stroke="black" d="M321.88,-380.68C280.4,-371.18 211.13,-354.4 152.7,-335.85 150.02,-335.01 147.29,-334.1 144.54,-333.15"/>
<polygon fill="black" stroke="black" points="146,-329.95 135.41,-329.87 143.64,-336.54 146,-329.95"/>
</g>
<!-- 積月 -->
<g id="node19" class="node">
<title>積月</title>
<ellipse fill="none" stroke="black" cx="516.7" cy="-315.88" rx="31.47" ry="19.98"/>
<text text-anchor="middle" x="516.7" y="-312.7" font-family="Times,serif" font-size="14.00">積月</text>
</g>
<!-- tXjy&#45;&gt;積月 -->
<g id="edge14" class="edge">
<title>tXjy&#45;&gt;積月</title>
<path fill="none" stroke="black" d="M395.46,-372.58C418.79,-362.19 449.58,-348.38 476.7,-335.85 478.42,-335.06 480.19,-334.24 481.97,-333.4"/>
<polygon fill="black" stroke="black" points="483.26,-336.67 490.82,-329.24 480.29,-330.33 483.26,-336.67"/>
</g>
<!-- 月餘 -->
<g id="node20" class="node">
<title>月餘</title>
<ellipse fill="none" stroke="black" cx="314.7" cy="-315.88" rx="31.47" ry="19.98"/>
<text text-anchor="middle" x="314.7" y="-312.7" font-family="Times,serif" font-size="14.00">月餘</text>
</g>
<!-- tXjy&#45;&gt;月餘 -->
<g id="edge15" class="edge">
<title>tXjy&#45;&gt;月餘</title>
<path fill="none" stroke="black" d="M348.04,-371.43C343.13,-363.39 337.17,-353.65 331.66,-344.63"/>
<polygon fill="black" stroke="black" points="334.7,-342.89 326.5,-336.18 328.73,-346.54 334.7,-342.89"/>
</g>
<!-- 入章月數 -->
<g id="node21" class="node">
<title>入章月數</title>
<ellipse fill="none" stroke="black" cx="213.7" cy="-315.88" rx="51.62" ry="19.98"/>
<text text-anchor="middle" x="213.7" y="-312.7" font-family="Times,serif" font-size="14.00">入章月數</text>
</g>
<!-- tXjy&#45;&gt;入章月數 -->
<g id="edge16" class="edge">
<title>tXjy&#45;&gt;入章月數</title>
<path fill="none" stroke="black" d="M323.59,-371.43C302.85,-361.13 276.48,-348.04 254.77,-337.27"/>
<polygon fill="black" stroke="black" points="256.4,-334.17 245.89,-332.86 253.29,-340.44 256.4,-334.17"/>
</g>
<!-- tZr -->
<g id="node4" class="node">
<title>tZr</title>
<polygon fill="#b2dfee" stroke="#b2dfee" points="801.07,-407.85 742.32,-407.85 742.32,-371.85 801.07,-371.85 801.07,-407.85"/>
<text text-anchor="middle" x="771.7" y="-386.68" font-family="Times,serif" font-size="14.00">推至日</text>
</g>
<!-- 氣首日大餘 -->
<g id="node22" class="node">
<title>氣首日大餘</title>
<ellipse fill="none" stroke="black" cx="806.7" cy="-315.88" rx="61.7" ry="19.98"/>
<text text-anchor="middle" x="806.7" y="-312.7" font-family="Times,serif" font-size="14.00">氣首日大餘</text>
</g>
<!-- tZr&#45;&gt;氣首日大餘 -->
<g id="edge18" class="edge">
<title>tZr&#45;&gt;氣首日大餘</title>
<path fill="none" stroke="black" d="M780.17,-371.43C783.88,-363.8 788.34,-354.64 792.53,-346.02"/>
<polygon fill="black" stroke="black" points="795.55,-347.8 796.78,-337.27 789.26,-344.73 795.55,-347.8"/>
</g>
<!-- 氣首日小餘 -->
<g id="node23" class="node">
<title>氣首日小餘</title>
<ellipse fill="none" stroke="black" cx="665.7" cy="-315.88" rx="61.7" ry="19.98"/>
<text text-anchor="middle" x="665.7" y="-312.7" font-family="Times,serif" font-size="14.00">氣首日小餘</text>
</g>
<!-- tZr&#45;&gt;氣首日小餘 -->
<g id="edge19" class="edge">
<title>tZr&#45;&gt;氣首日小餘</title>
<path fill="none" stroke="black" d="M746.04,-371.43C732.46,-362.22 715.6,-350.77 700.83,-340.74"/>
<polygon fill="black" stroke="black" points="702.98,-337.96 692.74,-335.24 699.04,-343.75 702.98,-337.96"/>
</g>
<!-- 氣首日干支 -->
<g id="node24" class="node">
<title>氣首日干支</title>
<ellipse fill="none" stroke="black" cx="947.7" cy="-315.88" rx="61.7" ry="19.98"/>
<text text-anchor="middle" x="947.7" y="-312.7" font-family="Times,serif" font-size="14.00">氣首日干支</text>
</g>
<!-- tZr&#45;&gt;氣首日干支 -->
<g id="edge20" class="edge">
<title>tZr&#45;&gt;氣首日干支</title>
<path fill="none" stroke="black" d="M801.55,-376.64C828.51,-365.62 868.66,-349.2 900.05,-336.36"/>
<polygon fill="black" stroke="black" points="901,-339.76 908.93,-332.73 898.35,-333.28 901,-339.76"/>
</g>
<!-- tSr -->
<g id="node5" class="node">
<title>tSr</title>
<polygon fill="#b2dfee" stroke="#b2dfee" points="194.07,-259.9 135.32,-259.9 135.32,-223.9 194.07,-223.9 194.07,-259.9"/>
<text text-anchor="middle" x="164.7" y="-238.73" font-family="Times,serif" font-size="14.00">推朔日</text>
</g>
<!-- 朔日大餘 -->
<g id="node25" class="node">
<title>朔日大餘</title>
<ellipse fill="none" stroke="black" cx="142.7" cy="-167.93" rx="51.62" ry="19.98"/>
<text text-anchor="middle" x="142.7" y="-164.75" font-family="Times,serif" font-size="14.00">朔日大餘</text>
</g>
<!-- tSr&#45;&gt;朔日大餘 -->
<g id="edge22" class="edge">
<title>tSr&#45;&gt;朔日大餘</title>
<path fill="none" stroke="black" d="M159.37,-223.48C157.13,-216.16 154.46,-207.42 151.92,-199.11"/>
<polygon fill="black" stroke="black" points="155.3,-198.2 149.03,-189.66 148.61,-200.25 155.3,-198.2"/>
</g>
<!-- 朔日小餘 -->
<g id="node26" class="node">
<title>朔日小餘</title>
<ellipse fill="none" stroke="black" cx="384.7" cy="-167.93" rx="51.62" ry="19.98"/>
<text text-anchor="middle" x="384.7" y="-164.75" font-family="Times,serif" font-size="14.00">朔日小餘</text>
</g>
<!-- tSr&#45;&gt;朔日小餘 -->
<g id="edge23" class="edge">
<title>tSr&#45;&gt;朔日小餘</title>
<path fill="none" stroke="black" d="M194.37,-231.2C230.51,-219.37 292.1,-199.22 335.4,-185.05"/>
<polygon fill="black" stroke="black" points="336.42,-188.41 344.83,-181.97 334.24,-181.75 336.42,-188.41"/>
</g>
<!-- 朔日干支 -->
<g id="node27" class="node">
<title>朔日干支</title>
<ellipse fill="none" stroke="black" cx="263.7" cy="-167.93" rx="51.62" ry="19.98"/>
<text text-anchor="middle" x="263.7" y="-164.75" font-family="Times,serif" font-size="14.00">朔日干支</text>
</g>
<!-- tSr&#45;&gt;朔日干支 -->
<g id="edge24" class="edge">
<title>tSr&#45;&gt;朔日干支</title>
<path fill="none" stroke="black" d="M188.66,-223.48C201.4,-214.22 217.25,-202.7 231.09,-192.63"/>
<polygon fill="black" stroke="black" points="233.04,-195.54 239.07,-186.83 228.92,-189.88 233.04,-195.54"/>
</g>
<!-- tRz -->
<g id="node6" class="node">
<title>tRz</title>
<polygon fill="#b2dfee" stroke="#b2dfee" points="650.07,-259.9 591.32,-259.9 591.32,-223.9 650.07,-223.9 650.07,-259.9"/>
<text text-anchor="middle" x="620.7" y="-238.73" font-family="Times,serif" font-size="14.00">推入中</text>
</g>
<!-- 星見入中日數 -->
<g id="node28" class="node">
<title>星見入中日數</title>
<ellipse fill="none" stroke="black" cx="620.7" cy="-167.93" rx="71.77" ry="19.98"/>
<text text-anchor="middle" x="620.7" y="-164.75" font-family="Times,serif" font-size="14.00">星見入中日數</text>
</g>
<!-- tRz&#45;&gt;星見入中日數 -->
<g id="edge29" class="edge">
<title>tRz&#45;&gt;星見入中日數</title>
<path fill="none" stroke="black" d="M620.7,-223.48C620.7,-216.32 620.7,-207.82 620.7,-199.68"/>
<polygon fill="black" stroke="black" points="624.2,-199.73 620.7,-189.73 617.2,-199.73 624.2,-199.73"/>
</g>
<!-- tRyr -->
<g id="node7" class="node">
<title>tRyr</title>
<polygon fill="#b2dfee" stroke="#b2dfee" points="186.32,-111.95 99.07,-111.95 99.07,-75.95 186.32,-75.95 186.32,-111.95"/>
<text text-anchor="middle" x="142.7" y="-90.78" font-family="Times,serif" font-size="14.00">推入月日數</text>
</g>
<!-- 星見日大餘 -->
<g id="node29" class="node">
<title>星見日大餘</title>
<ellipse fill="none" stroke="black" cx="61.7" cy="-19.98" rx="61.7" ry="19.98"/>
<text text-anchor="middle" x="61.7" y="-16.8" font-family="Times,serif" font-size="14.00">星見日大餘</text>
</g>
<!-- tRyr&#45;&gt;星見日大餘 -->
<g id="edge33" class="edge">
<title>tRyr&#45;&gt;星見日大餘</title>
<path fill="none" stroke="black" d="M123.09,-75.53C113.33,-66.86 101.35,-56.22 90.57,-46.64"/>
<polygon fill="black" stroke="black" points="93.18,-44.27 83.38,-40.25 88.53,-49.51 93.18,-44.27"/>
</g>
<!-- 星見日干支日名 -->
<g id="node30" class="node">
<title>星見日干支日名</title>
<ellipse fill="none" stroke="black" cx="223.7" cy="-19.98" rx="81.85" ry="19.98"/>
<text text-anchor="middle" x="223.7" y="-16.8" font-family="Times,serif" font-size="14.00">星見日干支日名</text>
</g>
<!-- tRyr&#45;&gt;星見日干支日名 -->
<g id="edge34" class="edge">
<title>tRyr&#45;&gt;星見日干支日名</title>
<path fill="none" stroke="black" d="M162.3,-75.53C171.81,-67.08 183.44,-56.75 194.01,-47.36"/>
<polygon fill="black" stroke="black" points="196.28,-50.02 201.43,-40.76 191.63,-44.78 196.28,-50.02"/>
</g>
<!-- tHjz -->
<g id="node8" class="node">
<title>tHjz</title>
<polygon fill="#b2dfee" stroke="#b2dfee" points="539.2,-407.85 466.2,-407.85 466.2,-371.85 539.2,-371.85 539.2,-407.85"/>
<text text-anchor="middle" x="502.7" y="-386.68" font-family="Times,serif" font-size="14.00">推後見中</text>
</g>
<!-- tHjy -->
<g id="node9" class="node">
<title>tHjy</title>
<polygon fill="#b2dfee" stroke="#b2dfee" points="307.2,-259.9 234.2,-259.9 234.2,-223.9 307.2,-223.9 307.2,-259.9"/>
<text text-anchor="middle" x="270.7" y="-238.73" font-family="Times,serif" font-size="14.00">推後見月</text>
</g>
<!-- 太極上元以來年數 -->
<g id="node10" class="node">
<title>太極上元以來年數</title>
<ellipse fill="none" stroke="black" cx="458.7" cy="-759.73" rx="91.92" ry="19.98"/>
<text text-anchor="middle" x="458.7" y="-756.56" font-family="Times,serif" font-size="14.00">太極上元以來年數</text>
</g>
<!-- 太極上元以來年數&#45;&gt;tJf -->
<g id="edge1" class="edge">
<title>太極上元以來年數&#45;&gt;tJf</title>
<path fill="none" stroke="black" d="M458.7,-739.45C458.7,-732.06 458.7,-723.47 458.7,-715.39"/>
<polygon fill="black" stroke="black" points="462.2,-715.64 458.7,-705.64 455.2,-715.64 462.2,-715.64"/>
</g>
<!-- 定見復數&#45;&gt;tZc -->
<g id="edge6" class="edge">
<title>定見復數&#45;&gt;tZc</title>
<path fill="none" stroke="black" d="M425.72,-593.36C437.24,-584.25 451.51,-572.96 464.08,-563.02"/>
<polygon fill="black" stroke="black" points="466.01,-565.96 471.68,-557.01 461.67,-560.47 466.01,-565.96"/>
</g>
<!-- 定見復數&#45;&gt;tXjy -->
<g id="edge4" class="edge">
<title>定見復數&#45;&gt;tXjy</title>
<path fill="none" stroke="black" d="M389.32,-592.32C371.93,-568.71 343.65,-525.84 332.7,-483.81 328.22,-466.62 328.68,-461.15 332.7,-443.85 334.7,-435.21 338.33,-426.34 342.25,-418.4"/>
<polygon fill="black" stroke="black" points="345.33,-420.05 346.94,-409.58 339.15,-416.77 345.33,-420.05"/>
</g>
<!-- 中元餘&#45;&gt;tZr -->
<g id="edge17" class="edge">
<title>中元餘&#45;&gt;tZr</title>
<path fill="none" stroke="black" d="M745.89,-443.92C749.71,-436.07 754.21,-426.81 758.38,-418.24"/>
<polygon fill="black" stroke="black" points="761.51,-419.8 762.74,-409.28 755.22,-416.74 761.51,-419.8"/>
</g>
<!-- 積中&#45;&gt;tXjy -->
<g id="edge11" class="edge">
<title>積中&#45;&gt;tXjy</title>
<path fill="none" stroke="black" d="M471.01,-450.29C451.93,-440.2 424.62,-425.75 401.71,-413.62"/>
<polygon fill="black" stroke="black" points="403.35,-410.53 392.87,-408.94 400.07,-416.71 403.35,-410.53"/>
</g>
<!-- 積中&#45;&gt;tHjz -->
<g id="edge25" class="edge">
<title>積中&#45;&gt;tHjz</title>
<path fill="none" stroke="black" d="M496.84,-443.54C497.66,-436.16 498.61,-427.56 499.51,-419.49"/>
<polygon fill="black" stroke="black" points="502.97,-420.06 500.6,-409.73 496.01,-419.28 502.97,-420.06"/>
</g>
<!-- 中餘&#45;&gt;tXjy -->
<g id="edge12" class="edge">
<title>中餘&#45;&gt;tXjy</title>
<path fill="none" stroke="black" d="M551.22,-450.82C545.84,-448.37 540.12,-445.92 534.7,-443.85 492.16,-427.7 442.42,-413.1 406.68,-403.34"/>
<polygon fill="black" stroke="black" points="407.63,-399.97 397.06,-400.73 405.8,-406.72 407.63,-399.97"/>
</g>
<!-- 中餘&#45;&gt;tRz -->
<g id="edge27" class="edge">
<title>中餘&#45;&gt;tRz</title>
<path fill="none" stroke="black" d="M575.77,-443.38C576.37,-411.8 579.54,-347.69 594.7,-295.9 597.26,-287.15 601.18,-278.08 605.21,-269.96"/>
<polygon fill="black" stroke="black" points="608.21,-271.78 609.76,-261.3 602.01,-268.53 608.21,-271.78"/>
</g>
<!-- 中餘&#45;&gt;tHjz -->
<g id="edge26" class="edge">
<title>中餘&#45;&gt;tHjz</title>
<path fill="none" stroke="black" d="M559.13,-446.5C549.97,-437.47 538.39,-426.05 528.11,-415.91"/>
<polygon fill="black" stroke="black" points="530.87,-413.72 521.29,-409.19 525.95,-418.7 530.87,-413.72"/>
</g>
<!-- 月元餘&#45;&gt;tSr -->
<g id="edge21" class="edge">
<title>月元餘&#45;&gt;tSr</title>
<path fill="none" stroke="black" d="M118.02,-297.09C125.41,-288.51 134.42,-278.05 142.54,-268.62"/>
<polygon fill="black" stroke="black" points="145.11,-271 148.98,-261.14 139.81,-266.43 145.11,-271"/>
</g>
<!-- 月元餘&#45;&gt;tRyr -->
<g id="edge30" class="edge">
<title>月元餘&#45;&gt;tRyr</title>
<path fill="none" stroke="black" d="M94,-295.87C80.69,-263.81 59.04,-197.65 81.7,-147.95 86.72,-136.92 95.3,-127.3 104.47,-119.4"/>
<polygon fill="black" stroke="black" points="106.5,-122.25 112.15,-113.29 102.14,-116.77 106.5,-122.25"/>
</g>
<!-- 月元餘&#45;&gt;tHjy -->
<g id="edge36" class="edge">
<title>月元餘&#45;&gt;tHjy</title>
<path fill="none" stroke="black" d="M133.12,-301.84C158.3,-291.06 194.5,-275.55 223.45,-263.14"/>
<polygon fill="black" stroke="black" points="224.55,-266.48 232.36,-259.33 221.79,-260.05 224.55,-266.48"/>
</g>
<!-- 月餘&#45;&gt;tHjy -->
<g id="edge35" class="edge">
<title>月餘&#45;&gt;tHjy</title>
<path fill="none" stroke="black" d="M303.59,-296.72C298.63,-288.61 292.69,-278.88 287.23,-269.94"/>
<polygon fill="black" stroke="black" points="290.33,-268.31 282.13,-261.61 284.36,-271.96 290.33,-268.31"/>
</g>
<!-- 氣首日小餘&#45;&gt;tRz -->
<g id="edge28" class="edge">
<title>氣首日小餘&#45;&gt;tRz</title>
<path fill="none" stroke="black" d="M653.87,-295.97C648.86,-287.95 642.92,-278.45 637.46,-269.72"/>
<polygon fill="black" stroke="black" points="640.43,-267.87 632.17,-261.25 634.5,-271.58 640.43,-267.87"/>
</g>
<!-- 朔日大餘&#45;&gt;tRyr -->
<g id="edge31" class="edge">
<title>朔日大餘&#45;&gt;tRyr</title>
<path fill="none" stroke="black" d="M142.7,-147.64C142.7,-140.25 142.7,-131.66 142.7,-123.59"/>
<polygon fill="black" stroke="black" points="146.2,-123.84 142.7,-113.84 139.2,-123.84 146.2,-123.84"/>
</g>
<!-- 朔日小餘&#45;&gt;tRyr -->
<g id="edge32" class="edge">
<title>朔日小餘&#45;&gt;tRyr</title>
<path fill="none" stroke="black" d="M345.68,-154.45C338.7,-152.25 331.49,-150.02 324.7,-147.95 282.03,-134.99 233.55,-120.91 197.36,-110.52"/>
<polygon fill="black" stroke="black" points="198.57,-107.22 188,-107.83 196.64,-113.95 198.57,-107.22"/>
</g>
</g>
</svg>
