<?xml version="1.0" encoding="UTF-8" standalone="no"?>
<!DOCTYPE svg PUBLIC "-//W3C//DTD SVG 1.1//EN"
 "http://www.w3.org/Graphics/SVG/1.1/DTD/svg11.dtd">
<!-- Generated by graphviz version 12.2.1 (20241206.2353)
 -->
<!-- Pages: 1 -->
<svg width="656pt" height="788pt"
 viewBox="0.00 0.00 656.09 787.71" xmlns="http://www.w3.org/2000/svg" xmlns:xlink="http://www.w3.org/1999/xlink">
<g id="graph0" class="graph" transform="scale(1 1) rotate(0) translate(4 783.71)">
<polygon fill="white" stroke="none" points="-4,4 -4,-783.71 652.09,-783.71 652.09,4 -4,4"/>
<!-- tong -->
<g id="node1" class="node">
<title>tong</title>
<polygon fill="#b2dfee" stroke="#b2dfee" points="327.09,-703.76 239.84,-703.76 239.84,-667.76 327.09,-667.76 327.09,-703.76"/>
<text text-anchor="middle" x="283.47" y="-682.58" font-family="Times,serif" font-size="14.00">推日月元統</text>
</g>
<!-- 統數 -->
<g id="node11" class="node">
<title>統數</title>
<ellipse fill="none" stroke="black" cx="233.47" cy="-611.78" rx="31.47" ry="19.98"/>
<text text-anchor="middle" x="233.47" y="-608.61" font-family="Times,serif" font-size="14.00">統數</text>
</g>
<!-- tong&#45;&gt;統數 -->
<g id="edge2" class="edge">
<title>tong&#45;&gt;統數</title>
<path fill="none" stroke="black" d="M271.36,-667.33C265.61,-659.06 258.61,-648.98 252.2,-639.75"/>
<polygon fill="black" stroke="black" points="255.25,-638 246.67,-631.79 249.5,-642 255.25,-638"/>
</g>
<!-- 入統歲數 -->
<g id="node12" class="node">
<title>入統歲數</title>
<ellipse fill="none" stroke="black" cx="334.47" cy="-611.78" rx="51.62" ry="19.98"/>
<text text-anchor="middle" x="334.47" y="-608.61" font-family="Times,serif" font-size="14.00">入統歲數</text>
</g>
<!-- tong&#45;&gt;入統歲數 -->
<g id="edge3" class="edge">
<title>tong&#45;&gt;入統歲數</title>
<path fill="none" stroke="black" d="M295.81,-667.33C301.44,-659.39 308.25,-649.78 314.57,-640.86"/>
<polygon fill="black" stroke="black" points="317.36,-642.98 320.29,-632.79 311.65,-638.93 317.36,-642.98"/>
</g>
<!-- tianzheng -->
<g id="node2" class="node">
<title>tianzheng</title>
<polygon fill="#b2dfee" stroke="#b2dfee" points="282.84,-555.81 224.09,-555.81 224.09,-519.81 282.84,-519.81 282.84,-555.81"/>
<text text-anchor="middle" x="253.47" y="-534.63" font-family="Times,serif" font-size="14.00">推天正</text>
</g>
<!-- 積月 -->
<g id="node13" class="node">
<title>積月</title>
<ellipse fill="none" stroke="black" cx="253.47" cy="-463.83" rx="31.47" ry="19.98"/>
<text text-anchor="middle" x="253.47" y="-460.66" font-family="Times,serif" font-size="14.00">積月</text>
</g>
<!-- tianzheng&#45;&gt;積月 -->
<g id="edge6" class="edge">
<title>tianzheng&#45;&gt;積月</title>
<path fill="none" stroke="black" d="M253.47,-519.38C253.47,-512.23 253.47,-503.72 253.47,-495.58"/>
<polygon fill="black" stroke="black" points="256.97,-495.63 253.47,-485.63 249.97,-495.63 256.97,-495.63"/>
</g>
<!-- 閏餘 -->
<g id="node14" class="node">
<title>閏餘</title>
<ellipse fill="none" stroke="black" cx="171.47" cy="-463.83" rx="31.47" ry="19.98"/>
<text text-anchor="middle" x="171.47" y="-460.66" font-family="Times,serif" font-size="14.00">閏餘</text>
</g>
<!-- tianzheng&#45;&gt;閏餘 -->
<g id="edge7" class="edge">
<title>tianzheng&#45;&gt;閏餘</title>
<path fill="none" stroke="black" d="M233.62,-519.38C222.89,-509.97 209.5,-498.22 197.9,-488.04"/>
<polygon fill="black" stroke="black" points="200.42,-485.58 190.59,-481.62 195.8,-490.85 200.42,-485.58"/>
</g>
<!-- tShuo -->
<g id="node3" class="node">
<title>tShuo</title>
<polygon fill="#b2dfee" stroke="#b2dfee" points="289.97,-407.85 216.97,-407.85 216.97,-371.85 289.97,-371.85 289.97,-407.85"/>
<text text-anchor="middle" x="253.47" y="-386.68" font-family="Times,serif" font-size="14.00">推正月朔</text>
</g>
<!-- 積日 -->
<g id="node15" class="node">
<title>積日</title>
<ellipse fill="none" stroke="black" cx="475.47" cy="-315.88" rx="31.47" ry="19.98"/>
<text text-anchor="middle" x="475.47" y="-312.7" font-family="Times,serif" font-size="14.00">積日</text>
</g>
<!-- tShuo&#45;&gt;積日 -->
<g id="edge10" class="edge">
<title>tShuo&#45;&gt;積日</title>
<path fill="none" stroke="black" d="M290.27,-374.9C293.37,-373.84 296.46,-372.8 299.47,-371.85 359.08,-353 376.75,-357.35 435.47,-335.85 437.39,-335.15 439.34,-334.39 441.3,-333.59"/>
<polygon fill="black" stroke="black" points="442.52,-336.88 450.27,-329.66 439.71,-330.46 442.52,-336.88"/>
</g>
<!-- 積日大餘 -->
<g id="node16" class="node">
<title>積日大餘</title>
<ellipse fill="none" stroke="black" cx="132.47" cy="-315.88" rx="51.62" ry="19.98"/>
<text text-anchor="middle" x="132.47" y="-312.7" font-family="Times,serif" font-size="14.00">積日大餘</text>
</g>
<!-- tShuo&#45;&gt;積日大餘 -->
<g id="edge11" class="edge">
<title>tShuo&#45;&gt;積日大餘</title>
<path fill="none" stroke="black" d="M224.18,-371.43C207.65,-361.6 186.85,-349.23 169.24,-338.75"/>
<polygon fill="black" stroke="black" points="171.51,-336.03 161.13,-333.93 167.93,-342.05 171.51,-336.03"/>
</g>
<!-- 積日小餘 -->
<g id="node17" class="node">
<title>積日小餘</title>
<ellipse fill="none" stroke="black" cx="374.47" cy="-315.88" rx="51.62" ry="19.98"/>
<text text-anchor="middle" x="374.47" y="-312.7" font-family="Times,serif" font-size="14.00">積日小餘</text>
</g>
<!-- tShuo&#45;&gt;積日小餘 -->
<g id="edge12" class="edge">
<title>tShuo&#45;&gt;積日小餘</title>
<path fill="none" stroke="black" d="M282.76,-371.43C299.28,-361.6 320.08,-349.23 337.69,-338.75"/>
<polygon fill="black" stroke="black" points="339,-342.05 345.8,-333.93 335.42,-336.03 339,-342.05"/>
</g>
<!-- 朔日干支 -->
<g id="node18" class="node">
<title>朔日干支</title>
<ellipse fill="none" stroke="black" cx="253.47" cy="-315.88" rx="51.62" ry="19.98"/>
<text text-anchor="middle" x="253.47" y="-312.7" font-family="Times,serif" font-size="14.00">朔日干支</text>
</g>
<!-- tShuo&#45;&gt;朔日干支 -->
<g id="edge13" class="edge">
<title>tShuo&#45;&gt;朔日干支</title>
<path fill="none" stroke="black" d="M253.47,-371.43C253.47,-364.28 253.47,-355.77 253.47,-347.63"/>
<polygon fill="black" stroke="black" points="256.97,-347.68 253.47,-337.68 249.97,-347.68 256.97,-347.68"/>
</g>
<!-- tuiRun -->
<g id="node4" class="node">
<title>tuiRun</title>
<polygon fill="#b2dfee" stroke="#b2dfee" points="129.84,-407.85 71.09,-407.85 71.09,-371.85 129.84,-371.85 129.84,-407.85"/>
<text text-anchor="middle" x="100.47" y="-386.68" font-family="Times,serif" font-size="14.00">推閏餘</text>
</g>
<!-- 閏月 -->
<g id="node19" class="node">
<title>閏月</title>
<ellipse fill="none" stroke="black" cx="31.47" cy="-315.88" rx="31.47" ry="19.98"/>
<text text-anchor="middle" x="31.47" y="-312.7" font-family="Times,serif" font-size="14.00">閏月</text>
</g>
<!-- tuiRun&#45;&gt;閏月 -->
<g id="edge16" class="edge">
<title>tuiRun&#45;&gt;閏月</title>
<path fill="none" stroke="black" d="M83.76,-371.43C75.13,-362.42 64.44,-351.27 54.98,-341.41"/>
<polygon fill="black" stroke="black" points="57.56,-339.04 48.12,-334.25 52.51,-343.89 57.56,-339.04"/>
</g>
<!-- tDz -->
<g id="node5" class="node">
<title>tDz</title>
<polygon fill="#b2dfee" stroke="#b2dfee" points="443.84,-555.81 385.09,-555.81 385.09,-519.81 443.84,-519.81 443.84,-555.81"/>
<text text-anchor="middle" x="414.47" y="-534.63" font-family="Times,serif" font-size="14.00">推冬至</text>
</g>
<!-- 冬至大餘 -->
<g id="node20" class="node">
<title>冬至大餘</title>
<ellipse fill="none" stroke="black" cx="354.47" cy="-463.83" rx="51.62" ry="19.98"/>
<text text-anchor="middle" x="354.47" y="-460.66" font-family="Times,serif" font-size="14.00">冬至大餘</text>
</g>
<!-- tDz&#45;&gt;冬至大餘 -->
<g id="edge17" class="edge">
<title>tDz&#45;&gt;冬至大餘</title>
<path fill="none" stroke="black" d="M399.94,-519.38C393.13,-511.21 384.84,-501.27 377.23,-492.13"/>
<polygon fill="black" stroke="black" points="379.97,-489.95 370.87,-484.51 374.59,-494.44 379.97,-489.95"/>
</g>
<!-- 冬至小餘 -->
<g id="node21" class="node">
<title>冬至小餘</title>
<ellipse fill="none" stroke="black" cx="475.47" cy="-463.83" rx="51.62" ry="19.98"/>
<text text-anchor="middle" x="475.47" y="-460.66" font-family="Times,serif" font-size="14.00">冬至小餘</text>
</g>
<!-- tDz&#45;&gt;冬至小餘 -->
<g id="edge18" class="edge">
<title>tDz&#45;&gt;冬至小餘</title>
<path fill="none" stroke="black" d="M429.23,-519.38C436.16,-511.21 444.58,-501.27 452.33,-492.13"/>
<polygon fill="black" stroke="black" points="455,-494.4 458.79,-484.51 449.66,-489.87 455,-494.4"/>
</g>
<!-- 冬至干支 -->
<g id="node22" class="node">
<title>冬至干支</title>
<ellipse fill="none" stroke="black" cx="596.47" cy="-463.83" rx="51.62" ry="19.98"/>
<text text-anchor="middle" x="596.47" y="-460.66" font-family="Times,serif" font-size="14.00">冬至干支</text>
</g>
<!-- tDz&#45;&gt;冬至干支 -->
<g id="edge19" class="edge">
<title>tDz&#45;&gt;冬至干支</title>
<path fill="none" stroke="black" d="M444.11,-525.08C473.02,-513.65 517.38,-496.11 550.79,-482.89"/>
<polygon fill="black" stroke="black" points="551.8,-486.26 559.81,-479.33 549.22,-479.75 551.8,-486.26"/>
</g>
<!-- tHc -->
<g id="node6" class="node">
<title>tHc</title>
<polygon fill="#b2dfee" stroke="#b2dfee" points="517.22,-259.9 415.72,-259.9 415.72,-223.9 517.22,-223.9 517.22,-259.9"/>
<text text-anchor="middle" x="466.47" y="-238.73" font-family="Times,serif" font-size="14.00">推合晨所在星</text>
</g>
<!-- 合晨度 -->
<g id="node23" class="node">
<title>合晨度</title>
<ellipse fill="none" stroke="black" cx="466.47" cy="-167.93" rx="41.54" ry="19.98"/>
<text text-anchor="middle" x="466.47" y="-164.75" font-family="Times,serif" font-size="14.00">合晨度</text>
</g>
<!-- tHc&#45;&gt;合晨度 -->
<g id="edge20" class="edge">
<title>tHc&#45;&gt;合晨度</title>
<path fill="none" stroke="black" d="M466.47,-223.48C466.47,-216.32 466.47,-207.82 466.47,-199.68"/>
<polygon fill="black" stroke="black" points="469.97,-199.73 466.47,-189.73 462.97,-199.73 469.97,-199.73"/>
</g>
<!-- tRyb -->
<g id="node7" class="node">
<title>tRyb</title>
<polygon fill="#b2dfee" stroke="#b2dfee" points="387.47,-111.95 257.47,-111.95 257.47,-75.95 387.47,-75.95 387.47,-111.95"/>
<text text-anchor="middle" x="322.47" y="-90.78" font-family="Times,serif" font-size="14.00">推其日夜半所在星</text>
</g>
<!-- 日夜半所在星度 -->
<g id="node24" class="node">
<title>日夜半所在星度</title>
<ellipse fill="none" stroke="black" cx="305.47" cy="-19.98" rx="81.85" ry="19.98"/>
<text text-anchor="middle" x="305.47" y="-16.8" font-family="Times,serif" font-size="14.00">日夜半所在星度</text>
</g>
<!-- tRyb&#45;&gt;日夜半所在星度 -->
<g id="edge25" class="edge">
<title>tRyb&#45;&gt;日夜半所在星度</title>
<path fill="none" stroke="black" d="M318.35,-75.53C316.64,-68.29 314.61,-59.67 312.66,-51.44"/>
<polygon fill="black" stroke="black" points="316.07,-50.66 310.37,-41.74 309.26,-52.27 316.07,-50.66"/>
</g>
<!-- tYyb -->
<g id="node8" class="node">
<title>tYyb</title>
<polygon fill="#b2dfee" stroke="#b2dfee" points="535.47,-111.95 405.47,-111.95 405.47,-75.95 535.47,-75.95 535.47,-111.95"/>
<text text-anchor="middle" x="470.47" y="-90.78" font-family="Times,serif" font-size="14.00">推其月夜半所在星</text>
</g>
<!-- 月夜半所在星度 -->
<g id="node25" class="node">
<title>月夜半所在星度</title>
<ellipse fill="none" stroke="black" cx="487.47" cy="-19.98" rx="81.85" ry="19.98"/>
<text text-anchor="middle" x="487.47" y="-16.8" font-family="Times,serif" font-size="14.00">月夜半所在星度</text>
</g>
<!-- tYyb&#45;&gt;月夜半所在星度 -->
<g id="edge26" class="edge">
<title>tYyb&#45;&gt;月夜半所在星度</title>
<path fill="none" stroke="black" d="M474.58,-75.53C476.29,-68.29 478.33,-59.67 480.27,-51.44"/>
<polygon fill="black" stroke="black" points="483.67,-52.27 482.56,-41.74 476.86,-50.66 483.67,-52.27"/>
</g>
<!-- tYs -->
<g id="node9" class="node">
<title>tYs</title>
<polygon fill="#b2dfee" stroke="#b2dfee" points="366.84,-407.85 308.09,-407.85 308.09,-371.85 366.84,-371.85 366.84,-407.85"/>
<text text-anchor="middle" x="337.47" y="-386.68" font-family="Times,serif" font-size="14.00">推月食</text>
</g>
<!-- 太極上元以來年數 -->
<g id="node10" class="node">
<title>太極上元以來年數</title>
<ellipse fill="none" stroke="black" cx="283.47" cy="-759.73" rx="91.92" ry="19.98"/>
<text text-anchor="middle" x="283.47" y="-756.56" font-family="Times,serif" font-size="14.00">太極上元以來年數</text>
</g>
<!-- 太極上元以來年數&#45;&gt;tong -->
<g id="edge1" class="edge">
<title>太極上元以來年數&#45;&gt;tong</title>
<path fill="none" stroke="black" d="M283.47,-739.45C283.47,-732.06 283.47,-723.47 283.47,-715.39"/>
<polygon fill="black" stroke="black" points="286.97,-715.64 283.47,-705.64 279.97,-715.64 286.97,-715.64"/>
</g>
<!-- 入統歲數&#45;&gt;tianzheng -->
<g id="edge5" class="edge">
<title>入統歲數&#45;&gt;tianzheng</title>
<path fill="none" stroke="black" d="M314.44,-592.99C304.46,-584.12 292.23,-573.25 281.35,-563.58"/>
<polygon fill="black" stroke="black" points="283.91,-561.18 274.11,-557.15 279.26,-566.41 283.91,-561.18"/>
</g>
<!-- 入統歲數&#45;&gt;tDz -->
<g id="edge4" class="edge">
<title>入統歲數&#45;&gt;tDz</title>
<path fill="none" stroke="black" d="M354.24,-592.99C364.1,-584.12 376.18,-573.25 386.93,-563.58"/>
<polygon fill="black" stroke="black" points="388.98,-566.45 394.07,-557.16 384.29,-561.24 388.98,-566.45"/>
</g>
<!-- 積月&#45;&gt;tShuo -->
<g id="edge8" class="edge">
<title>積月&#45;&gt;tShuo</title>
<path fill="none" stroke="black" d="M253.47,-443.54C253.47,-436.16 253.47,-427.56 253.47,-419.49"/>
<polygon fill="black" stroke="black" points="256.97,-419.74 253.47,-409.74 249.97,-419.74 256.97,-419.74"/>
</g>
<!-- 積月&#45;&gt;tYs -->
<g id="edge27" class="edge">
<title>積月&#45;&gt;tYs</title>
<path fill="none" stroke="black" d="M271.69,-447.21C282.49,-437.96 296.4,-426.04 308.66,-415.54"/>
<polygon fill="black" stroke="black" points="310.75,-418.36 316.06,-409.19 306.19,-413.04 310.75,-418.36"/>
</g>
<!-- 閏餘&#45;&gt;tuiRun -->
<g id="edge9" class="edge">
<title>閏餘&#45;&gt;tuiRun</title>
<path fill="none" stroke="black" d="M155.36,-446.5C146.53,-437.55 135.41,-426.28 125.48,-416.21"/>
<polygon fill="black" stroke="black" points="128.08,-413.86 118.57,-409.2 123.1,-418.78 128.08,-413.86"/>
</g>
<!-- 積日&#45;&gt;tHc -->
<g id="edge14" class="edge">
<title>積日&#45;&gt;tHc</title>
<path fill="none" stroke="black" d="M473.05,-295.59C472.13,-288.2 471.06,-279.61 470.05,-271.54"/>
<polygon fill="black" stroke="black" points="473.54,-271.27 468.83,-261.78 466.59,-272.13 473.54,-271.27"/>
</g>
<!-- 積日小餘&#45;&gt;tHc -->
<g id="edge15" class="edge">
<title>積日小餘&#45;&gt;tHc</title>
<path fill="none" stroke="black" d="M396.74,-297.46C408.38,-288.35 422.81,-277.06 435.52,-267.12"/>
<polygon fill="black" stroke="black" points="437.49,-270.02 443.21,-261.1 433.18,-264.5 437.49,-270.02"/>
</g>
<!-- 積日小餘&#45;&gt;tRyb -->
<g id="edge21" class="edge">
<title>積日小餘&#45;&gt;tRyb</title>
<path fill="none" stroke="black" d="M369.94,-295.75C360.78,-256.99 339.98,-169.03 329.21,-123.48"/>
<polygon fill="black" stroke="black" points="332.64,-122.75 326.93,-113.82 325.82,-124.36 332.64,-122.75"/>
</g>
<!-- 積日小餘&#45;&gt;tYyb -->
<g id="edge23" class="edge">
<title>積日小餘&#45;&gt;tYyb</title>
<path fill="none" stroke="black" d="M375.73,-295.58C378.58,-263.09 387.62,-196.31 415.47,-147.95 421.42,-137.61 429.99,-127.99 438.59,-119.86"/>
<polygon fill="black" stroke="black" points="440.85,-122.53 445.98,-113.26 436.19,-117.31 440.85,-122.53"/>
</g>
<!-- 合晨度&#45;&gt;tRyb -->
<g id="edge22" class="edge">
<title>合晨度&#45;&gt;tRyb</title>
<path fill="none" stroke="black" d="M438.36,-152.88C418.27,-142.84 390.82,-129.11 367.67,-117.54"/>
<polygon fill="black" stroke="black" points="369.24,-114.42 358.73,-113.08 366.11,-120.68 369.24,-114.42"/>
</g>
<!-- 合晨度&#45;&gt;tYyb -->
<g id="edge24" class="edge">
<title>合晨度&#45;&gt;tYyb</title>
<path fill="none" stroke="black" d="M467.54,-147.64C467.95,-140.25 468.43,-131.66 468.87,-123.59"/>
<polygon fill="black" stroke="black" points="472.36,-124.01 469.42,-113.83 465.37,-123.62 472.36,-124.01"/>
</g>
</g>
</svg>
